<?xml version="1.0" standalone="no"?>
<!DOCTYPE svg PUBLIC "-//W3C//DTD SVG 1.1//EN" "http://www.w3.org/Graphics/SVG/1.1/DTD/svg11.dtd" >
<svg xmlns="http://www.w3.org/2000/svg">
<metadata></metadata>
<defs>
<font id="webfontregular" horiz-adv-x="1024" >
<font-face units-per-em="2048" ascent="1802" descent="-246" />
<missing-glyph horiz-adv-x="524" />
<glyph horiz-adv-x="0" />
<glyph horiz-adv-x="682" />
<glyph unicode=" "  horiz-adv-x="524" />
<glyph unicode="&#x09;" horiz-adv-x="524" />
<glyph unicode="&#xa0;" horiz-adv-x="524" />
<glyph unicode="(" horiz-adv-x="589" d="M84 664q0 276 47 476.5t104.5 333t107.5 199t56 72.5l107 -66q-6 -8 -53 -74.5t-101.5 -193.5t-98.5 -313.5t-44 -433.5q0 -246 44 -433.5t98.5 -314.5t101.5 -194.5t53 -75.5l-107 -66q-6 6 -56 72.5t-107.5 200t-104.5 335t-47 476.5z" />
<glyph unicode=")" horiz-adv-x="589" d="M78 -354q6 8 53 75.5t102.5 194.5t99.5 314.5t44 433.5t-44 433t-99.5 314t-102.5 193.5t-53 74.5l106 66q6 -6 56.5 -72.5t108 -199t104.5 -333t47 -476.5q0 -274 -47 -476t-104.5 -335.5t-108 -200t-56.5 -72.5z" />
<glyph unicode="," horiz-adv-x="479" d="M104 -199q2 2 17.5 18.5t34 42t33 56.5t14.5 62q-74 14 -74 104q0 51 27.5 80t79.5 29q53 0 79.5 -36t26.5 -96q0 -74 -23.5 -131t-53 -97t-58.5 -63.5t-39 -29.5z" />
<glyph unicode="-" horiz-adv-x="735" d="M106 537v92h496v-92h-496z" />
<glyph unicode="." horiz-adv-x="464" d="M125 86q0 43 31.5 76t74.5 33t75 -33t32 -76t-32 -76t-75 -33t-74.5 33t-31.5 76z" />
<glyph unicode="/" d="M82 -391l741 2136l97 -29l-744 -2136z" />
<glyph unicode="0" horiz-adv-x="1193" d="M96 760q0 174 24.5 318.5t81 249t150.5 161.5t236 57q141 0 235.5 -57t150.5 -161.5t80.5 -249t24.5 -318.5t-24.5 -318.5t-80.5 -249t-150.5 -162t-235.5 -57.5t-235.5 57.5t-151 162t-81 249t-24.5 318.5zM213 760q0 -207 27.5 -339t78 -210t119 -107.5t150.5 -29.5 t150.5 29.5t118.5 107.5t78 210t28 339q0 205 -28 338t-78 210.5t-118.5 107.5t-150.5 30t-150.5 -30t-119 -107.5t-78 -210.5t-27.5 -338z" />
<glyph unicode="2" horiz-adv-x="1142" d="M113 1348q78 92 194.5 145t263.5 53q117 0 202 -33.5t142.5 -91t85 -136.5t27.5 -167q0 -127 -59.5 -254t-161.5 -255t-238.5 -255t-289.5 -254h765v-100h-921v90q182 152 328.5 289t250 261t158.5 238.5t55 223.5q0 74 -22.5 136t-66.5 108.5t-111.5 73t-159.5 26.5 q-104 0 -205.5 -45t-167.5 -131z" />
<glyph unicode="3" horiz-adv-x="1105" d="M86 164l74 74q12 -16 41.5 -43t76 -54.5t107.5 -47t139 -19.5q203 0 297 82t94 247q0 63 -19 126t-68.5 110t-132.5 75.5t-210 26.5l-178 -2v99l158 2q125 0 207 20.5t130 59t67.5 94t19.5 125.5q0 141 -88 224t-281 83q-55 0 -99 -10.5t-83 -28.5t-74 -46t-74 -63 l-65 74q82 92 197.5 133t244.5 41q205 0 319.5 -103.5t114.5 -283.5q0 -55 -15 -116.5t-51 -113.5t-93.5 -89t-139.5 -45v-2q80 -16 141.5 -55.5t102.5 -92.5t61.5 -117.5t20.5 -134.5q0 -96 -32.5 -174t-95 -132t-152 -84t-201.5 -30q-115 0 -199 26t-140 58.5t-86 64.5 t-36 42z" />
<glyph unicode="9" horiz-adv-x="1110" d="M76 1063q0 223 124 353t353 130t353 -134t124 -376q0 -182 -44 -348t-131 -305t-219 -244.5t-306 -165.5l-45 93q119 41 219 107.5t177 150.5t129 183t77 208q-61 -70 -154.5 -101.5t-179.5 -31.5q-229 0 -353 129t-124 352zM188 1063q0 -84 22.5 -154.5t68 -122t114 -81 t160.5 -29.5t160.5 29.5t114.5 81t70 122t24 154.5t-24 154.5t-70 123t-114.5 81t-160.5 28.5t-160.5 -28.5t-114 -81t-68 -123t-22.5 -154.5z" />
<glyph unicode="A" horiz-adv-x="1216" d="M23 0l520 1520h129l520 -1520h-117l-145 418h-643l-146 -418h-118zM317 520h580l-289 840z" />
<glyph unicode="B" horiz-adv-x="1216" d="M133 0v1520h399q254 0 377 -88.5t123 -294.5q0 -68 -17.5 -125.5t-48 -101.5t-73.5 -70.5t-94 -32.5v-4q25 0 80 -13.5t111.5 -55.5t98 -121t41.5 -210q0 -109 -36.5 -185.5t-102 -124.5t-153.5 -70.5t-193 -22.5h-512zM244 100h387q82 0 151.5 14.5t121.5 51.5t82 98.5 t30 155.5q0 166 -97.5 243.5t-263.5 77.5h-411v-641zM244 844h325q188 0 268.5 69.5t80.5 214.5q0 162 -93.5 226.5t-292.5 64.5h-288v-575z" />
<glyph unicode="C" horiz-adv-x="1226" d="M100 760q0 401 146.5 589.5t433.5 188.5q139 0 260 -45t186 -129l-65 -76q-72 78 -165 114t-204 36q-119 0 -208 -37t-149.5 -118t-90 -210t-29.5 -313t29.5 -312.5t91 -210t154 -118.5t217.5 -37q51 0 106 10t106.5 28.5t94.5 47.5t71 65l68 -75q-74 -86 -199 -131 t-260 -45q-301 0 -447.5 188t-146.5 590z" />
<glyph unicode="D" horiz-adv-x="1263" d="M133 0v1520h438q135 0 247 -47.5t192 -142.5t123 -237.5t43 -332.5t-43 -332.5t-123 -238t-191.5 -142.5t-247.5 -47h-438zM244 100h293q250 0 386 161t136 499t-135.5 498.5t-386.5 160.5h-293v-1319z" />
<glyph unicode="E" horiz-adv-x="1134" d="M133 0v1520h924v-101h-813v-585h682v-103h-682v-631h813v-100h-924z" />
<glyph unicode="F" horiz-adv-x="1073" d="M133 0v1520h883v-101h-772v-585h641v-103h-641v-731h-111z" />
<glyph unicode="G" horiz-adv-x="1300" d="M92 760q0 406 153.5 596t469.5 190q147 0 277 -45t206 -137l-68 -76q-8 10 -33.5 37t-73.5 53.5t-121 47t-173 20.5q-129 0 -227.5 -37t-163 -118t-97 -212t-32.5 -319t35 -318.5t102.5 -213.5t167.5 -119.5t231 -36.5q117 0 203 23.5t142 58.5v538h-408v101h518v-691 q-23 -16 -63.5 -38.5t-99 -43t-135.5 -34t-171 -13.5q-326 0 -482.5 190.5t-156.5 596.5z" />
<glyph unicode="H" horiz-adv-x="1361" d="M131 0v1520h111v-686h876v686h111v-1520h-111v731h-876v-731h-111z" />
<glyph unicode="I" horiz-adv-x="413" d="M143 0v1520h119v-1520h-119z" />
<glyph unicode="J" horiz-adv-x="794" d="M-47 66l53 81q47 -39 120 -56t134 -17q166 0 231.5 78.5t65.5 214.5v1153h111v-1184q0 -61 -13.5 -125t-56.5 -117t-122 -87t-210 -34q-86 0 -167 19.5t-146 73.5z" />
<glyph unicode="K" horiz-adv-x="1153" d="M133 0v1520h111v-742l719 742h151l-729 -752l748 -768h-154l-735 760v-760h-111z" />
<glyph unicode="L" horiz-adv-x="1054" d="M133 0v1520h111v-1420h751v-100h-862z" />
<glyph unicode="M" horiz-adv-x="1705" d="M131 0v1520h178l551 -1082l551 1082h174v-1520h-110v1397l-574 -1092h-86l-573 1092v-1397h-111z" />
<glyph unicode="N" horiz-adv-x="1402" d="M133 0v1520h156l878 -1389v1389h111v-1520h-158l-876 1389v-1389h-111z" />
<glyph unicode="O" horiz-adv-x="1370" d="M92 760q0 160 23.5 302t89 249.5t181.5 171t300 63.5q182 0 298 -63.5t181.5 -171t90 -249.5t24.5 -302q0 -158 -24.5 -301.5t-90 -251t-181.5 -171t-298 -63.5q-184 0 -300 63.5t-181.5 171t-89 251t-23.5 301.5zM209 760q0 -201 32.5 -333t94 -211t150.5 -110.5 t200 -31.5t200 31.5t150.5 110.5t94 211t32.5 333t-32.5 333t-94 210.5t-150.5 110.5t-200 32t-200 -32t-150.5 -110.5t-94 -210.5t-32.5 -333z" />
<glyph unicode="P" horiz-adv-x="1198" d="M133 0v1520h485q252 0 378 -122t126 -351t-126 -350.5t-378 -121.5h-374v-575h-111zM244 678h342q211 0 315.5 86t104.5 283q0 199 -104.5 285.5t-315.5 86.5h-342v-741z" />
<glyph unicode="R" horiz-adv-x="1226" d="M133 0v1520h483q256 0 380 -106.5t124 -336.5q0 -147 -71.5 -254.5t-200.5 -154.5l338 -668h-125l-324 639h-493v-639h-111zM244 739h411q178 0 263.5 91t85.5 247q0 98 -27 164t-79 105.5t-130 56t-182 16.5h-342v-680z" />
<glyph unicode="S" horiz-adv-x="1157" d="M70 150l75 92q14 -16 48 -44t86.5 -54.5t121 -46t152.5 -19.5q184 0 283.5 75.5t99.5 211.5q0 96 -46 159.5t-155 126.5q-43 25 -103.5 47.5t-124 44t-123.5 45t-105 52.5q-82 51 -130.5 120.5t-48.5 180.5q0 193 130 299t360 106q123 0 239.5 -39t202.5 -131l-74 -76 q-63 61 -146 103.5t-212 42.5q-180 0 -283.5 -75t-103.5 -210q0 -96 53 -161.5t193 -122.5q98 -39 206.5 -75t196.5 -93q86 -53 138.5 -130t52.5 -194q0 -92 -36 -168t-101.5 -130t-159.5 -84t-213 -30q-106 0 -190.5 23.5t-145 54.5t-95 59.5t-42.5 39.5z" />
<glyph unicode="T" horiz-adv-x="1124" d="M27 1419v101h1063v-101h-476v-1419h-110v1419h-477z" />
<glyph unicode="U" horiz-adv-x="1333" d="M123 502v1018h110v-992q0 -109 24 -192.5t76 -142t134 -89t201 -30.5t200.5 30.5t134 89t76 142.5t23.5 192v992h110v-1018q0 -111 -27.5 -207t-92 -168t-168 -113t-256.5 -41q-154 0 -258.5 41t-168 113t-91 168t-27.5 207z" />
<glyph unicode="V" horiz-adv-x="1175" d="M23 1520h116l445 -1368l444 1368h115l-502 -1520h-119z" />
<glyph unicode="W" horiz-adv-x="1923" d="M23 1520h112l361 -1395l385 1395h155l385 -1395l357 1395h112l-397 -1520h-141l-394 1405l-393 -1405h-145z" />
<glyph unicode="X" horiz-adv-x="1175" d="M25 0l485 786l-465 734h135l402 -643l393 643h133l-457 -738l494 -782h-135l-430 690l-422 -690h-133z" />
<glyph unicode="Y" horiz-adv-x="1175" d="M23 1520h127l438 -809l436 809h125l-508 -928v-592h-111v592z" />
<glyph unicode="a" horiz-adv-x="966" d="M66 319q0 154 94 239t268 85h291v125q0 131 -73 189.5t-195 58.5q-59 0 -105.5 -12.5t-79.5 -29t-54.5 -31.5t-33.5 -23l-51 84q14 10 40 29.5t65.5 38t94 32.5t128.5 14q68 0 134 -14t119.5 -49t86 -97.5t32.5 -156.5v-584q0 -47 10.5 -74.5t23.5 -44t26.5 -23.5 t19.5 -14l-51 -84q-47 16 -83 58.5t-40 83.5q-27 -43 -63 -72q-35 -27 -92.5 -48.5t-143.5 -21.5q-84 0 -151.5 24t-115.5 69t-74.5 107.5t-26.5 141.5zM180 322q0 -117 68.5 -180.5t200.5 -63.5q78 0 130 27.5t83 62.5q37 39 57 90v285h-268q-135 0 -203 -52.5t-68 -168.5z " />
<glyph unicode="b" horiz-adv-x="1058" d="M113 0v1581h108v-649q8 25 30.5 56.5t63.5 60t101.5 49t142.5 20.5q213 0 322.5 -137t109.5 -432q0 -297 -108.5 -434.5t-323.5 -137.5q-88 0 -148.5 21.5t-99.5 51.5t-58.5 59.5t-25.5 48.5l-37 -158h-77zM225 549q0 -248 83 -359.5t243 -111.5t243 111.5t83 359.5 q0 246 -83 356.5t-243 110.5t-243 -110.5t-83 -356.5z" />
<glyph unicode="c" horiz-adv-x="905" d="M82 549q0 291 110.5 430t315.5 139q123 0 201.5 -35.5t119.5 -83.5l-59 -75q-39 39 -99.5 65.5t-152.5 26.5q-156 0 -238.5 -110.5t-82.5 -356.5q0 -248 81.5 -359.5t243.5 -111.5q82 0 152.5 26.5t118.5 73.5l59 -72q-51 -61 -139 -95t-205 -34q-221 0 -323.5 140.5 t-102.5 431.5z" />
<glyph unicode="d" horiz-adv-x="1050" d="M66 549q0 295 109.5 432t322.5 137q84 0 143 -20.5t99 -49t62.5 -60.5t33.5 -56v649h108v-1581h-98v174q-10 -27 -34 -60.5t-65.5 -64.5t-102 -51.5t-146.5 -20.5q-215 0 -323.5 137.5t-108.5 434.5zM180 549q0 -248 83 -359.5t243 -111.5t242.5 111.5t82.5 359.5 q0 246 -82.5 356.5t-242.5 110.5t-243 -110.5t-83 -356.5z" />
<glyph unicode="e" horiz-adv-x="1007" d="M82 549q0 289 111.5 429t326.5 140q121 0 201 -42t127 -118q46 -78 64 -186q14 -88 15 -193q0 -24 -1 -49h-729v-19q0 -222 92 -325q96 -108 270 -108q86 0 166 28.5t125 77.5l65 -78q-51 -53 -137 -91t-229 -38q-109 0 -195 34t-146.5 103.5t-93 177t-32.5 257.5z M199 631h614q0 90 -14.5 161.5t-48 121t-90 76t-136.5 26.5q-166 0 -239.5 -94.5t-85.5 -290.5z" />
<glyph unicode="f" horiz-adv-x="710" d="M29 993v103h196v127q0 53 8.5 113.5t39 111.5t92 85t170.5 34q88 0 131 -19.5t63 -29.5l-35 -95q-20 12 -57 26.5t-98 14.5q-68 0 -109 -20.5t-62.5 -56t-27.5 -86t-6 -109.5v-96h336v-103h-336v-993h-109v993h-196z" />
<glyph unicode="g" horiz-adv-x="1036" d="M66 549q0 295 109.5 432t322.5 137q86 0 146.5 -20.5t102 -51t65.5 -64.5t34 -60v174h98v-1180q0 -102 -35 -173t-96 -114t-147 -61.5t-189 -18.5q-66 0 -127 12.5t-111.5 32t-89 43t-61.5 46.5l64 81q16 -16 45.5 -35.5t70.5 -37t91.5 -29.5t109.5 -12q201 0 284 73.5 t83 225.5v215q-10 -25 -33 -56.5t-63 -61.5t-99 -49.5t-143 -19.5q-215 0 -323.5 137.5t-108.5 434.5zM180 549q0 -248 83 -359.5t243 -111.5t242.5 111.5t82.5 359.5q0 246 -82.5 356.5t-242.5 110.5t-243 -110.5t-83 -356.5z" />
<glyph unicode="h" d="M111 0v1581h108v-641q10 20 36 51t69 59.5t105.5 48t145.5 19.5q70 0 133.5 -19.5t110.5 -61.5t75 -109.5t28 -163.5v-764h-109v739q0 129 -65.5 203t-202.5 74q-150 0 -238 -93.5t-88 -242.5v-680h-108z" />
<glyph unicode="i" horiz-adv-x="380" d="M133.5 1519.5q20.5 22.5 54.5 22.5q35 0 55.5 -22.5t20.5 -61.5q0 -35 -20.5 -56.5t-55.5 -21.5q-75 0 -75 76q0 41 20.5 63.5zM133 0v1096h109v-1096h-109z" />
<glyph unicode="j" horiz-adv-x="524" d="M-166 -391l47 88q6 -2 16.5 -10.5t29 -16.5t47 -14t71.5 -6q123 0 180.5 61.5t57.5 208.5v1176h108v-1205q0 -178 -89 -260t-255 -82q-59 0 -100 9.5t-66 19.5q-31 12 -47 31zM260 1458q0 39 20.5 61.5t55.5 22.5t55.5 -22.5t20.5 -61.5q0 -35 -20.5 -56.5t-55.5 -21.5 q-76 0 -76 78z" />
<glyph unicode="k" horiz-adv-x="944" d="M111 0v1581h108v-977l522 492h142l-543 -512l580 -584h-140l-561 563v-563h-108z" />
<glyph unicode="l" horiz-adv-x="442" d="M123 274v1307h108v-1294q0 -55 7.5 -95t26 -65t50 -37t82.5 -12v-101q-78 0 -131 18.5t-84.5 55.5t-45 93.5t-13.5 129.5z" />
<glyph unicode="m" horiz-adv-x="1738" d="M113 0v1096h98v-168q10 25 35.5 57.5t69.5 62t107.5 50t149.5 20.5t146.5 -21.5t99.5 -51t59.5 -62.5t28.5 -55q10 23 36 55.5t71 62t110.5 51t155.5 21.5q70 0 133.5 -19.5t110.5 -61.5t74.5 -109.5t27.5 -163.5v-764h-108v739q0 129 -66 203t-203 74q-74 0 -134 -24.5 t-103 -67.5t-65.5 -103.5t-22.5 -134.5v-686h-109v739q0 129 -65.5 203t-202.5 74q-150 0 -238 -93.5t-88 -242.5v-680h-108z" />
<glyph unicode="n" d="M109 0v1096h98v-168q10 25 35.5 57.5t69.5 62t107.5 50t149.5 20.5q72 0 135.5 -19.5t111.5 -61.5t76 -109.5t28 -163.5v-764h-109v739q0 129 -65.5 203t-202.5 74q-150 0 -238 -93.5t-88 -242.5v-680h-108z" />
<glyph unicode="o" d="M78 549q0 295 113.5 432t326.5 137q211 0 325.5 -137t114.5 -432t-114.5 -433.5t-325.5 -138.5q-213 0 -326.5 138.5t-113.5 433.5zM193 549q0 -248 82.5 -359.5t242.5 -111.5t243 111.5t83 359.5q0 246 -83 356.5t-243 110.5t-242.5 -110.5t-82.5 -356.5z" />
<glyph unicode="p" horiz-adv-x="1058" d="M113 -465v1561h98v-174q10 27 33.5 60.5t64.5 64t102.5 51t147.5 20.5q213 0 322.5 -137t109.5 -432q0 -297 -108.5 -434.5t-323.5 -137.5q-82 0 -142.5 19.5t-100.5 49.5t-63.5 61.5t-31.5 56.5v-629h-108zM225 549q0 -248 83 -359.5t243 -111.5t243 111.5t83 359.5 q0 246 -83 356.5t-243 110.5t-243 -110.5t-83 -356.5z" />
<glyph unicode="r" horiz-adv-x="669" d="M113 0v1096h98v-191q12 31 41 69t80 69.5t125.5 53t177.5 21.5v-121q-109 0 -186.5 -27.5t-128 -77.5t-75 -120t-24.5 -151v-621h-108z" />
<glyph unicode="s" horiz-adv-x="856" d="M45 139l80 72q6 -12 26.5 -33.5t55.5 -44t85 -39t118 -16.5q123 0 186 52t63 138q0 31 -7 59.5t-25.5 56.5t-53 53.5t-90.5 47.5q-90 37 -161.5 67t-120.5 64.5t-76 83t-27 119.5q0 135 88 217t269 82q70 0 124 -17.5t93 -39t60.5 -41t27.5 -23.5l-72 -82 q-2 2 -18.5 17.5t-47 34t-74.5 34t-102 15.5q-117 0 -175 -51.5t-58 -130.5q0 -49 37 -101.5t139 -91.5q96 -37 169 -67.5t121 -69.5t71.5 -91t23.5 -134q0 -135 -94 -218.5t-281 -83.5q-82 0 -145.5 20.5t-107.5 48.5t-69.5 54.5t-31.5 38.5z" />
<glyph unicode="t" horiz-adv-x="710" d="M33 991v105h194v252l107 14v-266h350v-105h-350v-686q0 -123 47 -175t158 -52q39 0 60.5 6t45.5 10l23 -96q-33 -8 -71 -14.5t-87 -6.5q-150 0 -216.5 75t-66.5 237v702h-194z" />
<glyph unicode="u" d="M102 334v762h109v-740q0 -129 65.5 -203.5t202.5 -74.5q74 0 134.5 25.5t103.5 70.5t65.5 107.5t22.5 138.5v676h108v-1096h-102v166q-10 -23 -35.5 -55.5t-69.5 -62.5t-107.5 -50.5t-149.5 -20.5q-72 0 -134.5 19.5t-109.5 62.5t-75 111t-28 164z" />
<glyph unicode="v" horiz-adv-x="956" d="M20 1096h117l342 -969l346 969h113l-397 -1096h-123z" />
<glyph unicode="x" horiz-adv-x="929" d="M31 0l364 557l-350 539h127l295 -457l291 457h121l-342 -527l368 -569h-127l-313 487l-313 -487h-121z" />
<glyph unicode="y" horiz-adv-x="966" d="M20 1096h117l357 -959l337 959h111l-387 -1073q-25 -70 -62.5 -145t-91 -141.5t-124 -113.5t-158.5 -61l-39 104q68 12 125 46t102 82t78 106.5t49 117.5z" />
<glyph unicode="&#xad;" horiz-adv-x="735" d="M106 537v92h496v-92h-496z" />
<glyph unicode="&#x2000;" horiz-adv-x="872" />
<glyph unicode="&#x2001;" horiz-adv-x="1745" />
<glyph unicode="&#x2002;" horiz-adv-x="872" />
<glyph unicode="&#x2003;" horiz-adv-x="1745" />
<glyph unicode="&#x2004;" horiz-adv-x="581" />
<glyph unicode="&#x2005;" horiz-adv-x="436" />
<glyph unicode="&#x2006;" horiz-adv-x="290" />
<glyph unicode="&#x2007;" horiz-adv-x="290" />
<glyph unicode="&#x2008;" horiz-adv-x="218" />
<glyph unicode="&#x2009;" horiz-adv-x="349" />
<glyph unicode="&#x200a;" horiz-adv-x="96" />
<glyph unicode="&#x2010;" horiz-adv-x="735" d="M106 537v92h496v-92h-496z" />
<glyph unicode="&#x2011;" horiz-adv-x="735" d="M106 537v92h496v-92h-496z" />
<glyph unicode="&#x2012;" horiz-adv-x="735" d="M106 537v92h496v-92h-496z" />
<glyph unicode="&#x2013;" horiz-adv-x="1263" d="M106 537v92h1024v-92h-1024z" />
<glyph unicode="&#x2014;" horiz-adv-x="2287" d="M106 537v92h2048v-92h-2048z" />
<glyph unicode="&#x202f;" horiz-adv-x="349" />
<glyph unicode="&#x205f;" horiz-adv-x="436" />
<glyph unicode="&#x25fc;" horiz-adv-x="1095" d="M0 0v1096h1096v-1096h-1096z" />
</font>
</defs>
</svg>
